<svg xmlns="http://www.w3.org/2000/svg" xmlns:xlink="http://www.w3.org/1999/xlink">

    <symbol id="SKEE_MASK" viewBox="0 0 448 512">
        <path fill="currentColor" d="M376.61 54.46c-82.95-72.61-222.26-72.61-305.22 0C7.36 110.5-31.01 224.44 32.63 416 64.53 512 224 512 224 512s159.47 0 191.37-96c63.64-191.56 25.27-305.5-38.76-361.54zM288 64c8.84 0 16 7.16 16 16s-7.16 16-16 16-16-7.16-16-16 7.16-16 16-16zm-128 0c8.84 0 16 7.16 16 16s-7.16 16-16 16-16-7.16-16-16 7.16-16 16-16zm16 400c-8.84 0-16-7.16-16-16s7.16-16 16-16 16 7.16 16 16-7.16 16-16 16zm0-64c-8.84 0-16-7.16-16-16s7.16-16 16-16 16 7.16 16 16-7.16 16-16 16zm0-64c-8.84 0-16-7.16-16-16s7.16-16 16-16 16 7.16 16 16-7.16 16-16 16zm-48-64c-35.35 0-64-28.65-64-64 0-17.67 14.33-32 32-32h64c17.67 0 32 14.33 32 32 0 35.35-28.65 64-64 64zm96-128c-8.84 0-16-7.16-16-16s7.16-16 16-16 16 7.16 16 16-7.16 16-16 16zm48 320c-8.84 0-16-7.16-16-16s7.16-16 16-16 16 7.16 16 16-7.16 16-16 16zm0-64c-8.84 0-16-7.16-16-16s7.16-16 16-16 16 7.16 16 16-7.16 16-16 16zm0-64c-8.84 0-16-7.16-16-16s7.16-16 16-16 16 7.16 16 16-7.16 16-16 16zm48-64c-35.35 0-64-28.65-64-64 0-17.67 14.33-32 32-32h64c17.67 0 32 14.33 32 32 0 35.35-28.65 64-64 64z"></path>
    </symbol>

    <symbol id="SKEE_MASK_LIGHT" viewBox="0 0 448 512">
        <path fill="currentColor" d="M376.61 54.46C335.13 18.15 279.56 0 224 0 168.43 0 112.87 18.15 71.39 54.46 7.36 110.5-31.01 224.44 32.63 416 64.53 512 224 512 224 512s159.47 0 191.37-96c63.64-191.56 25.27-305.5-38.76-361.54zM385 405.91c-20.08 60.43-123.06 73.97-161 74.09-1.36 0-137.06-2.02-161-74.09C-4.54 202.62 52.47 113.54 92.47 78.54 126.25 48.96 174.2 32 224 32s97.74 16.96 131.53 46.54c40 35 97.01 124.08 29.47 327.37zM272 112c8.84 0 16-7.16 16-16s-7.16-16-16-16-16 7.16-16 16 7.17 16 16 16zm-96 0c8.84 0 16-7.16 16-16s-7.16-16-16-16-16 7.16-16 16 7.16 16 16 16zm16 304c-8.84 0-16 7.16-16 16s7.16 16 16 16 16-7.16 16-16-7.16-16-16-16zm0-64c-8.84 0-16 7.16-16 16s7.16 16 16 16 16-7.16 16-16-7.16-16-16-16zm0-64c-8.84 0-16 7.16-16 16s7.16 16 16 16 16-7.16 16-16-7.16-16-16-16zm-20-112h-72c-19.88 0-36 14.33-36 32 0 35.35 32.23 64 72 64 39.76 0 72-28.65 72-64 0-17.67-16.12-32-36-32zm-36 64c-33.59 0-48.06-32-36-32h72c11.72 0-2.9 32-36 32zm88-112c-8.84 0-16 7.16-16 16s7.16 16 16 16 16-7.16 16-16-7.16-16-16-16zm32 288c-8.84 0-16 7.16-16 16s7.16 16 16 16 16-7.16 16-16-7.16-16-16-16zm0-64c-8.84 0-16 7.16-16 16s7.16 16 16 16 16-7.16 16-16-7.16-16-16-16zm0-64c-8.84 0-16 7.16-16 16s7.16 16 16 16 16-7.16 16-16-7.16-16-16-16zm92-112h-72c-19.88 0-36 14.33-36 32 0 35.35 32.24 64 72 64s72-28.65 72-64c0-17.67-16.12-32-36-32zm-36 64c-33.6 0-48.06-32-36-32h72c11.72 0-2.91 32-36 32z"></path>
    </symbol>

    <symbol id="SKEE_MASK_DUATONE" viewBox="0 0 448 512">
        <g class="fa-group"><path class="fa-secondary" fill="currentColor" d="M376.61 54.46c-82.95-72.61-222.26-72.61-305.22 0-64 56-102.4 170-38.76 361.54C64.53 512 224 512 224 512s159.47 0 191.37-96C479 224.44 440.64 110.5 376.61 54.46zM288 64a16 16 0 1 1-16 16 16 16 0 0 1 16-16zm-128 0a16 16 0 1 1-16 16 16 16 0 0 1 16-16zm16 400a16 16 0 1 1 16-16 16 16 0 0 1-16 16zm0-64a16 16 0 1 1 16-16 16 16 0 0 1-16 16zm0-64a16 16 0 1 1 16-16 16 16 0 0 1-16 16zm-48-64a64 64 0 0 1-64-64 32 32 0 0 1 32-32h64a32 32 0 0 1 32 32 64 64 0 0 1-64 64zm96-128a16 16 0 1 1 16-16 16 16 0 0 1-16 16zm48 320a16 16 0 1 1 16-16 16 16 0 0 1-16 16zm0-64a16 16 0 1 1 16-16 16 16 0 0 1-16 16zm0-64a16 16 0 1 1 16-16 16 16 0 0 1-16 16zm48-64a64 64 0 0 1-64-64 32 32 0 0 1 32-32h64a32 32 0 0 1 32 32 64 64 0 0 1-64 64z" opacity="0.4"></path><path class="fa-primary" fill="currentColor" d="M176 432a16 16 0 1 0 16 16 16 16 0 0 0-16-16zm0-64a16 16 0 1 0 16 16 16 16 0 0 0-16-16zm0-64a16 16 0 1 0 16 16 16 16 0 0 0-16-16zM288 64a16 16 0 1 0 16 16 16 16 0 0 0-16-16zm-16 240a16 16 0 1 0 16 16 16 16 0 0 0-16-16zm0 64a16 16 0 1 0 16 16 16 16 0 0 0-16-16zm0 64a16 16 0 1 0 16 16 16 16 0 0 0-16-16zm-48-320a16 16 0 1 0 16 16 16 16 0 0 0-16-16zm-48-32a16 16 0 1 0-16 16 16 16 0 0 0 16-16z"></path></g>
    </symbol>

    <symbol id="SPIDER" viewBox="0 0 576 512">
        <path fill="currentColor" d="M151.17 167.35L177.1 176h4.67l5.22-26.12c.72-3.58 1.8-7.58 3.21-11.79l-20.29-40.58 23.8-71.39c2.79-8.38-1.73-17.44-10.12-20.24L168.42.82c-8.38-2.8-17.45 1.73-20.24 10.12l-25.89 77.68a32.04 32.04 0 0 0 1.73 24.43l27.15 54.3zm422.14 182.03l-52.75-79.12a32.002 32.002 0 0 0-26.62-14.25H416l68.99-24.36a32.03 32.03 0 0 0 16.51-12.61l53.6-80.41c4.9-7.35 2.91-17.29-4.44-22.19l-13.31-8.88c-7.35-4.9-17.29-2.91-22.19 4.44l-50.56 75.83L404.1 208H368l-10.37-51.85C355.44 145.18 340.26 96 288 96c-52.26 0-67.44 49.18-69.63 60.15L208 208h-36.1l-60.49-20.17L60.84 112c-4.9-7.35-14.83-9.34-22.19-4.44l-13.31 8.88c-7.35 4.9-9.34 14.83-4.44 22.19l53.6 80.41a32.03 32.03 0 0 0 16.51 12.61L160 256H82.06a32.02 32.02 0 0 0-26.63 14.25L2.69 349.38c-4.9 7.35-2.92 17.29 4.44 22.19l13.31 8.88c7.35 4.9 17.29 2.91 22.19-4.44l48-72h47.06l-60.83 97.33A31.988 31.988 0 0 0 72 418.3V496c0 8.84 7.16 16 16 16h16c8.84 0 16-7.16 16-16v-73.11l74.08-118.53c-1.01 14.05-2.08 28.11-2.08 42.21C192 399.64 232.76 448 288 448s96-48.36 96-101.43c0-14.1-1.08-28.16-2.08-42.21L456 422.89V496c0 8.84 7.16 16 16 16h16c8.84 0 16-7.16 16-16v-77.71c0-6-1.69-11.88-4.86-16.96L438.31 304h47.06l48 72c4.9 7.35 14.84 9.34 22.19 4.44l13.31-8.88c7.36-4.9 9.34-14.83 4.44-22.18zM406.09 97.51l-20.29 40.58c1.41 4.21 2.49 8.21 3.21 11.79l5.22 26.12h4.67l25.93-8.65 27.15-54.3a31.995 31.995 0 0 0 1.73-24.43l-25.89-77.68C425.03 2.56 415.96-1.98 407.58.82l-15.17 5.06c-8.38 2.8-12.91 11.86-10.12 20.24l23.8 71.39z"></path>
    </symbol>

    <symbol id="SPIDER_LIGHT" viewBox="0 0 576 512">
        <path fill="currentColor" d="M574.7 352.5l-54.8-82.2c-5.9-8.9-15.9-14.2-26.6-14.2H379.5l90.1-30c6.8-2.3 12.6-6.7 16.5-12.6l56.5-84.8c2.5-3.7 1.5-8.6-2.2-11.1l-13.3-8.9c-3.7-2.5-8.6-1.5-11.1 2.2l-55 82.5c-1 1.5-2.4 2.6-4.1 3.1l-83.1 27.7L426.9 118c5.8-11.4 6.7-24.5 2.6-36.7L404.2 5.5c-1.4-4.2-5.9-6.5-10.1-5.1l-15.2 5.1c-4.2 1.4-6.5 5.9-5.1 10.1l25.3 75.8c1.4 4 1.1 8.4-.9 12.2l-36.5 73.1-4.1-20.5c-2.2-11-17.4-60.1-69.6-60.1s-67.4 49.2-69.6 60.1l-4.1 20.5-36.5-73.1c-1.9-3.8-2.3-8.2-.9-12.2l25.3-75.8c1.4-4.2-.9-8.7-5.1-10.1L181.9.4c-4.2-1.4-8.7.9-10.1 5.1l-25.3 75.8c-4.1 12.2-3.1 25.2 2.6 36.7l53.1 106.2-83.1-27.7c-1.7-.6-3.1-1.7-4.1-3.1l-55-82.5c-2.4-3.7-7.4-4.7-11.1-2.2l-13.3 8.9c-3.7 2.4-4.7 7.4-2.2 11.1l56.5 84.8c3.9 5.9 9.8 10.4 16.5 12.6l90.1 30H82.8c-10.7 0-20.7 5.3-26.6 14.2L1.3 352.5c-2.5 3.7-1.5 8.6 2.2 11.1l13.3 8.9c3.7 2.5 8.6 1.5 11.1-2.2l52.4-78.7c1.5-2.2 4-3.6 6.7-3.6h102.1l-69.8 111.7c-4.8 7.6-7.3 16.4-7.3 25.5V504c0 4.4 3.6 8 8 8h16c4.4 0 8-3.6 8-8v-81.1c0-1.5.4-3 1.2-4.2l46.9-75.1c0 1-.2 2-.2 3 0 53.1 40.8 101.4 96 101.4s96-48.4 96-101.4c0-1-.1-2-.1-3l46.9 75.1c.8 1.3 1.2 2.7 1.2 4.2V504c0 4.4 3.6 8 8 8h16c4.4 0 8-3.6 8-8v-78.8c0-9-2.5-17.8-7.3-25.5L386.9 288H489c2.7 0 5.2 1.3 6.7 3.6l52.4 78.7c2.4 3.7 7.4 4.7 11.1 2.2l13.3-8.9c3.6-2.5 4.6-7.5 2.2-11.1zM288 416c-39.5 0-64-36-64-69.4 0-36.8 3.7-73.7 10.9-109.7l14.9-74.4c.7-3.5 7.8-34.4 38.2-34.4s37.5 30.9 38.2 34.4l14.9 74.4c7.2 36.1 10.9 72.9 10.9 109.7 0 33.4-24.5 69.4-64 69.4z"></path>
    </symbol>

</svg>